<svg width="23" height="25" viewBox="0 0 23 25" fill="none" xmlns="http://www.w3.org/2000/svg">
<path d="M12.5099 23.666H4.6258C4.21156 23.666 3.87386 23.3283 3.87386 22.9141V14.2916C3.87386 13.8773 3.53616 13.5396 3.12192 13.5396H1.75313C1.10925 13.5396 0.76255 12.7832 1.1858 12.2969L3.87836 9.1766L4.36465 8.61377" stroke="white" stroke-width="1.5" stroke-miterlimit="10" stroke-linecap="round"/>
<path d="M6.45386 6.19139L10.8844 1.0539C11.1861 0.707198 11.7264 0.707198 12.0281 1.0584L18.4804 8.6183L18.9171 9.1361L21.6232 12.3014C22.0419 12.7877 21.6952 13.5442 21.0514 13.5442H19.6735C19.2593 13.5442 18.9216 13.8819 18.9216 14.2961V22.9141C18.9216 23.3284 18.5839 23.6661 18.1697 23.6661H16.193" stroke="white" stroke-width="1.5" stroke-miterlimit="10" stroke-linecap="round"/>
</svg>
