<svg width="35" height="36" viewBox="0 0 35 36" xmlns="http://www.w3.org/2000/svg">
<path d="M20.8239 17.66C20.8239 19.47 19.3697 20.94 17.5791 20.94C15.7985 20.94 14.3442 19.47 14.3442 17.66C14.3442 15.86 15.7985 14.39 17.5791 14.39C19.3697 14.39 20.8239 15.86 20.8239 17.66Z" fill="#767676"/>
<path d="M21.5955 9.23999H13.4044C11.0698 9.23999 9.17041 11.16 9.17041 13.52V21.81C9.17041 24.16 11.0698 26.08 13.4044 26.08H21.5955C23.9302 26.08 25.8295 24.16 25.8295 21.81V13.52C25.8295 11.16 23.9302 9.23999 21.5955 9.23999ZM17.5791 22.77C14.7993 22.77 12.5339 20.48 12.5339 17.66C12.5339 14.85 14.7993 12.56 17.5791 12.56C20.3688 12.56 22.6342 14.85 22.6342 17.66C22.6342 20.48 20.3688 22.77 17.5791 22.77ZM22.931 13.43C22.2682 13.43 21.7241 12.88 21.7241 12.21C21.7241 11.54 22.2682 11 22.931 11C23.5938 11 24.1379 11.54 24.1379 12.21C24.1379 12.88 23.5938 13.43 22.931 13.43Z" fill="#767676"/>
<path d="M17.5 0C7.83493 0 0 7.92 0 17.69C0 27.46 7.83493 35.38 17.5 35.38C27.1651 35.38 35 27.46 35 17.69C35 7.92 27.1651 0 17.5 0ZM27.7586 21.81C27.7586 25.24 24.9887 28.04 21.5955 28.04H13.4045C10.0014 28.04 7.24138 25.24 7.24138 21.81V13.52C7.24138 10.09 10.0014 7.29 13.4045 7.29H21.5955C24.9887 7.29 27.7586 10.09 27.7586 13.52V21.81Z" fill="#767676"/>
</svg>
