<svg width="35" height="36" viewBox="0 0 35 36" xmlns="http://www.w3.org/2000/svg">
<path d="M17.5049 0.380005C7.83715 0.380005 0 8.30001 0 18.07C0 25.27 4.25502 31.45 10.3605 34.21C10.3407 33.71 10.3209 33.22 10.3308 32.72C10.3902 31 10.598 30.41 12.7947 21.08C12.8244 20.94 12.7947 20.82 12.7453 20.69C12.2208 19.26 12.112 17.8 12.577 16.33C13.5666 13.15 17.1388 12.9 17.7622 15.53C18.1481 17.15 17.1289 19.28 16.3472 22.42C15.704 25.01 18.7221 26.85 21.2949 24.96C23.6698 23.22 24.5999 19.04 24.4218 16.07C24.0755 10.16 17.6633 8.89 13.5963 10.79C8.93554 12.97 7.87673 18.81 9.97455 21.48C10.2417 21.82 10.4495 22.03 10.3605 22.37C10.2219 22.9 10.1032 23.44 9.95476 23.97C9.84591 24.37 9.51937 24.51 9.12355 24.35C8.35171 24.03 7.69861 23.53 7.17416 22.88C5.38309 20.64 4.87843 16.22 7.24343 12.47C9.8657 8.32 14.7342 6.64 19.1773 7.15C24.4911 7.76 27.8456 11.43 28.4789 15.59C28.7659 17.49 28.5581 22.16 25.9259 25.46C22.8979 29.26 17.9898 29.51 15.7238 27.18C15.5457 27 15.4071 26.79 15.2389 26.58C15.2092 26.67 15.1894 26.74 15.1696 26.81C14.0811 31.12 13.9624 32.07 12.8442 34.07C12.676 34.38 12.4781 34.67 12.3 34.97C13.9426 35.49 15.6842 35.76 17.495 35.76C27.1628 35.76 35 27.84 35 18.07C35.0099 8.30001 27.1727 0.380005 17.5049 0.380005Z" fill="#73A9AD"/>
</svg>
