<svg width="22" height="27" viewBox="0 0 22 27" fill="none" xmlns="http://www.w3.org/2000/svg">
<path d="M6.91369 5.46081H9.09746C9.58825 5.46081 9.93495 5.01505 9.8539 4.53327C9.79537 4.19107 9.79537 3.83086 9.86291 3.45714C10.0835 2.25944 11.0426 1.29138 12.2358 1.05724C14.1719 0.683526 15.8649 2.15588 15.8649 4.02447C15.8649 4.19557 15.8514 4.36667 15.8244 4.53327C15.7433 5.01505 16.0855 5.46081 16.5763 5.46081H19.9758C20.4035 5.46081 20.7502 5.80751 20.7502 6.23526V9.59421C20.7502 10.049 20.3585 10.4047 19.9083 10.3597C19.7642 10.3461 19.6156 10.3416 19.467 10.3462C18.8231 10.3732 18.1792 10.6658 17.6659 11.1071" stroke="white" stroke-width="1.5" stroke-miterlimit="10" stroke-linecap="round"/>
<path d="M16.95 14.8487C17.4678 15.7718 18.4584 16.3976 19.5886 16.3976C19.6921 16.3976 19.7912 16.3931 19.8947 16.3841C20.345 16.3391 20.7457 16.6633 20.7457 17.1181V20.5085C20.7457 20.9363 20.399 21.283 19.9713 21.283H16.6168C16.1666 21.283 15.8019 21.6702 15.8469 22.116C15.8649 22.2781 15.8694 22.4447 15.8604 22.6112C15.7703 24.1737 14.4331 25.4479 12.8706 25.4614C11.1822 25.4794 9.80886 24.1151 9.80886 22.4356C9.80886 22.3321 9.81337 22.233 9.82237 22.134C9.8674 21.6837 9.54321 21.283 9.08844 21.283H5.70247C5.27472 21.283 4.92802 20.9363 4.92802 20.5085V17.1586C4.92802 16.7038 4.53629 16.3526 4.08603 16.3886C3.72132 16.4201 3.3386 16.3841 2.94687 16.2671C2.16792 16.0329 1.51053 15.4746 1.14132 14.7497C0.11022 12.701 1.60509 10.5037 3.60875 10.3551C3.77985 10.3416 3.94645 10.3461 4.10855 10.3596C4.5543 10.4001 4.92802 10.0354 4.92802 9.58967V7.13574" stroke="white" stroke-width="1.5" stroke-miterlimit="10" stroke-linecap="round"/>
</svg>
