<svg width="36" height="42" viewBox="0 0 36 42" fill="none" xmlns="http://www.w3.org/2000/svg">
<path d="M8.78461 3.70043C11.5187 1.94679 14.7352 1.00966 17.9858 1.00348" stroke="#767676" stroke-miterlimit="10" stroke-linecap="round"/>
<path d="M6.14954 5.77879C6.44954 5.49116 6.76192 5.2128 7.08048 4.94373" stroke="#767676" stroke-miterlimit="10" stroke-linecap="round"/>
<path d="M29.5406 30.8246C26.7818 33.3855 23.1416 34.9443 19.3683 35.2041C15.2084 35.4639 11.3053 34.4247 7.79492 31.9535C5.71654 30.3947 4.28456 28.573 2.98557 26.3616C2.59278 25.7122 2.33298 25.0627 2.07318 24.4132C-0.268096 18.8213 0.77419 12.0604 4.67735 7.3902" stroke="#767676" stroke-miterlimit="10" stroke-linecap="round"/>
<path d="M32.2438 27.6637C31.7767 28.3627 31.2602 29.0276 30.7004 29.6524" stroke="#767676" stroke-miterlimit="10" stroke-linecap="round"/>
<path d="M17.9827 1.00349C24.1808 0.873588 29.9025 4.38396 33.0232 9.716C34.0624 11.5377 34.5851 13.4862 34.9748 15.5676C35.4944 19.3378 34.9748 23.1111 33.0696 26.2596" stroke="#767676" stroke-miterlimit="10" stroke-linecap="round"/>
<path d="M5.96086 25.3812C2.86493 23.5317 0.947371 20.977 0.944279 18.1501C0.938093 12.4995 8.58667 7.90668 18.0322 7.8974C18.2611 7.8974 18.4868 7.90049 18.7157 7.90359" stroke="#767676" stroke-miterlimit="10" stroke-linecap="round"/>
<path d="M17.8374 1.62205C18.2765 1.62205 19.2415 2.57773 20.0889 6.15305C20.8436 9.33557 21.2611 13.5789 21.2673 18.1007C21.2735 22.6224 20.8652 26.8658 20.1168 30.0514C19.2786 33.6298 18.3137 34.5855 17.8745 34.5855C17.4353 34.5855 16.4703 33.6298 15.6229 30.0545C14.8682 26.8719 14.4507 22.6286 14.4445 18.1069C14.4383 13.5851 14.8466 9.34176 15.5951 6.15614C16.4332 2.57773 17.3982 1.62205 17.8374 1.62205ZM17.8374 1.00348C15.6105 1.00657 13.8167 8.66443 13.829 18.1099C13.8414 27.5524 15.6507 35.2071 17.8776 35.2071C20.1013 35.204 21.8952 27.5462 21.8859 18.1007C21.8735 8.65824 20.0611 1.00348 17.8374 1.00348Z" fill="#767676"/>
<path d="M17.9456 1.03442V1.65299C24.3323 1.65299 29.5344 9.04177 29.5468 18.1223C29.5561 27.2091 24.3663 34.6102 17.9641 34.6195C11.5774 34.6195 6.37528 27.2307 6.36291 18.1502C6.35673 13.7089 7.58149 9.54281 9.81142 6.41286C11.9919 3.34477 14.8775 1.65608 17.9456 1.65299V1.03442ZM17.9425 1.03442C17.9394 1.03442 17.9363 1.03442 17.9332 1.03442C11.1908 1.0437 5.73197 8.70465 5.74434 18.1502C5.75672 27.5895 11.2248 35.235 17.9641 35.235C17.9672 35.235 17.9703 35.235 17.9734 35.235C24.7158 35.2257 30.1746 27.5648 30.1623 18.1192C30.153 8.67991 24.6818 1.03133 17.9425 1.03442Z" fill="#767676"/>
<path d="M12.9909 27.9142C11.8094 27.6977 10.6836 27.4039 9.62897 27.0482" stroke="#767676" stroke-miterlimit="10" stroke-linecap="round"/>
<path d="M29.8654 10.7274C33.116 12.5861 35.1418 15.2058 35.1449 18.11C35.1511 23.7606 27.4994 28.3534 18.057 28.3627C17.5838 28.3627 17.1168 28.3534 16.6528 28.3318" stroke="#767676" stroke-miterlimit="10" stroke-linecap="round"/>
<path d="M22.6375 8.26544C23.989 8.48813 25.2725 8.80978 26.4695 9.21494" stroke="#767676" stroke-miterlimit="10" stroke-linecap="round"/>
<path d="M19.5106 21.9234C19.0157 21.9327 18.5147 21.9389 18.0075 21.9389C8.56195 21.9512 0.904094 20.2533 0.901001 18.1501C0.901001 17.2656 2.24948 16.4522 4.51343 15.8027" stroke="#767676" stroke-miterlimit="10" stroke-linecap="round"/>
<path d="M27.7097 21.2584C26.4045 21.4595 24.9632 21.6234 23.4292 21.7409" stroke="#767676" stroke-miterlimit="10" stroke-linecap="round"/>
<path d="M19.6776 14.3367C28.3345 14.513 35.1047 16.1305 35.1047 18.1099C35.1047 19.0161 33.682 19.8512 31.3067 20.51" stroke="#767676" stroke-miterlimit="10" stroke-linecap="round"/>
<path d="M15.9229 14.3522C16.6033 14.3336 17.2961 14.3212 18.0013 14.3212C18.5673 14.3212 19.1271 14.3274 19.6776 14.3367" stroke="#767676" stroke-miterlimit="10" stroke-linecap="round"/>
<path d="M8.31763 15.0016C9.67229 14.7913 11.1692 14.6243 12.7682 14.5099" stroke="#767676" stroke-miterlimit="10" stroke-linecap="round"/>
</svg>
